<svg width="215" height="150" viewBox="0 0 215 150" fill="none" xmlns="http://www.w3.org/2000/svg">
<path fill-rule="evenodd" clip-rule="evenodd" d="M42.8564 0V21.4287H64.2852V42.8564H85.7139V64.2852H107.142V0H171.428V21.4287H192.855L192.856 42.8564H214.285L214.284 107.143H192.856V128.57L171.428 128.571L171.427 150H107.143V128.571L85.7139 128.57V107.143H64.2852V128.57L42.8564 128.571V150H0V107.142H21.4277V85.7139H42.8564V64.2852H21.4287L21.4277 42.8574H0V0H42.8564ZM128.57 42.8574V64.2852H107.142L107.143 85.7139H128.57V107.142H149.999V85.7139H171.428V64.2852H149.999V42.8574H128.57Z" fill="#2B7FFF"/>
</svg>
