<svg width="256" height="256" viewBox="0 0 256 256" fill="none" xmlns="http://www.w3.org/2000/svg">
<path fill-rule="evenodd" clip-rule="evenodd" d="M51.1993 38V63.5716H76.7995V89.142H102.4V114.714H127.999V38H204.8V63.5716H230.399L230.4 89.142H256L255.999 165.857H230.4V191.427L204.8 191.428L204.798 217H128V191.428L102.4 191.427V165.857H76.7995V191.427L51.1993 191.428V217H0V165.856H25.5991V140.285H51.1993V114.714H25.6002L25.5991 89.1432H0V38H51.1993ZM153.599 89.1432V114.714H127.999L128 140.285H153.599V165.856H179.199V140.285H204.8V114.714H179.199V89.1432H153.599Z" fill="#2B7FFF"/>
</svg>
